<?xml version="1.0" standalone="no"?><!DOCTYPE svg PUBLIC "-//W3C//DTD SVG 1.1//EN" "http://www.w3.org/Graphics/SVG/1.1/DTD/svg11.dtd"><svg t="1678967566913" class="icon" viewBox="0 0 1024 1024" version="1.1" xmlns="http://www.w3.org/2000/svg" p-id="4388" xmlns:xlink="http://www.w3.org/1999/xlink" width="200" height="200"><path d="M927.381872 303.801882h-271.342248v-253.590886c0-27.894998-22.82318-50.210996-50.210996-50.210996H418.678554c-27.894998 0-50.210996 22.82318-50.210996 50.210996v253.590886H96.618128c-27.894998 0-50.210996 22.82318-50.210996 50.210996v187.150074c0 27.894998 22.82318 50.210996 50.210996 50.210995h78.613175V973.789004c0 27.894998 22.82318 50.210996 50.210995 50.210996h581.737494c27.894998 0 50.210996-22.82318 50.210996-50.210996v-382.415057h69.483902c27.894998 0 50.210996-22.82318 50.210996-50.210995V354.520059c0.507182-27.894998-22.315998-50.718177-49.703814-50.718177z m-265.763249 343.869242c-27.894998 0-50.210996 22.82318-50.210995 50.210996v225.695889h-44.124815v-149.111441c0-27.894998-22.82318-50.210996-50.210995-50.210996s-50.210996 22.82318-50.210996 50.210996v149.111441h-44.124814v-94.33581c0-27.894998-22.82318-50.210996-50.210996-50.210995s-50.210996 22.82318-50.210995 50.210995v94.33581h-45.139178v-332.204062h480.808321v332.204062h-45.139178v-225.695889c-1.014364-27.894998-23.837543-50.210996-51.225359-50.210996z m-192.729074-293.151065v-253.590886h86.220902v253.590886c0 27.894998 22.82318 50.210996 50.210995 50.210996h271.342249v86.220901H147.336305v-86.220901h271.342249c27.387816 0 50.210996-22.82318 50.210995-50.210996z" p-id="4389"></path></svg>