<?xml version="1.0" standalone="no"?><!DOCTYPE svg PUBLIC "-//W3C//DTD SVG 1.1//EN" "http://www.w3.org/Graphics/SVG/1.1/DTD/svg11.dtd"><svg class="icon" width="200px" height="200.00px" viewBox="0 0 1024 1024" version="1.1" xmlns="http://www.w3.org/2000/svg"><path d="M768 768q0-14.857143-10.857143-25.714286t-25.714286-10.857143-25.714286 10.857143-10.857143 25.714286 10.857143 25.714286 25.714286 10.857143 25.714286-10.857143 10.857143-25.714286zm146.285714 0q0-14.857143-10.857143-25.714286t-25.714286-10.857143-25.714286 10.857143-10.857143 25.714286 10.857143 25.714286 25.714286 10.857143 25.714286-10.857143 10.857143-25.714286zm73.142857-128l0 182.857143q0 22.857143-16 38.857143t-38.857143 16l-841.142857 0q-22.857143 0-38.857143-16t-16-38.857143l0-182.857143q0-22.857143 16-38.857143t38.857143-16l265.714286 0 77.142857 77.714286q33.142857 32 77.714286 32t77.714286-32l77.714286-77.714286 265.142857 0q22.857143 0 38.857143 16t16 38.857143zm-185.714286-325.142857q9.714286 23.428571-8 40l-256 256q-10.285714 10.857143-25.714286 10.857143t-25.714286-10.857143l-256-256q-17.714286-16.571429-8-40 9.714286-22.285714 33.714286-22.285714l146.285714 0 0-256q0-14.857143 10.857143-25.714286t25.714286-10.857143l146.285714 0q14.857143 0 25.714286 10.857143t10.857143 25.714286l0 256 146.285714 0q24 0 33.714286 22.285714z" /></svg>