<?xml version="1.0" standalone="no"?><!DOCTYPE svg PUBLIC "-//W3C//DTD SVG 1.1//EN" "http://www.w3.org/Graphics/SVG/1.1/DTD/svg11.dtd"><svg class="icon" width="200px" height="200.00px" viewBox="0 0 1024 1024" version="1.1" xmlns="http://www.w3.org/2000/svg"><path d="M960 226.816C960 161.856 907.264 128 842.368 128L206.08 128C141.12 128 88.32 161.856 88.32 226.816c0 28.544 10.624 46.08 29.248 67.52 1.152 1.6 2.88-1.28 4.288 0.192L384 550.72l0 273.856c0 18.24 13.76 33.088 32 33.088S448 842.88 448 824.64L448 537.088c0-8.832-3.52-17.216-9.664-23.36L169.92 245.376c-0.512-0.576-0.64-1.344-1.216-1.856-9.216-9.6-14.336-4.416-14.336-17.728C154.432 197.248 177.536 192 206.08 192l636.288 0c28.352 0 51.52 5.248 51.52 33.728 0 13.248-4.992 16.896-14.144 26.496-0.256 0.256-0.32-3.904-0.512-3.648L593.408 524.352C587.264 530.56 576 536.768 576 545.472l0 349.504C576 913.28 589.76 928 608 928s32-14.72 32-33.024L640 559.168l278.528-269.696c0.384-0.384 4.928 8.512 5.376 8.064C944.256 275.776 960 256.768 960 226.816z"  /></svg>