<?xml version="1.0" standalone="no"?><!DOCTYPE svg PUBLIC "-//W3C//DTD SVG 1.1//EN" "http://www.w3.org/Graphics/SVG/1.1/DTD/svg11.dtd"><svg t="1678709362027" class="icon" viewBox="0 0 1024 1024" version="1.1" xmlns="http://www.w3.org/2000/svg" p-id="1807" xmlns:xlink="http://www.w3.org/1999/xlink" width="200" height="200"><path d="M288.981333 296.96h93.013334a31.146667 31.146667 0 0 1 23.04 9.045333c5.973333 5.973333 8.96 13.482667 8.96 22.485334 0 8.96-2.986667 16.512-8.96 22.485333a34.986667 34.986667 0 0 1-23.04 10.026667H232.96a34.730667 34.730667 0 0 1-23.04-10.026667 29.994667 29.994667 0 0 1-8.96-22.016V179.968a31.146667 31.146667 0 0 1 8.96-23.04 31.146667 31.146667 0 0 1 23.04-8.96 31.146667 31.146667 0 0 1 23.04 8.96c5.973333 6.016 8.96 13.696 8.96 23.04V229.973333c57.344-51.328 122.88-83.157333 196.522667-95.488 73.642667-12.330667 146.133333-3.498667 217.472 26.496 70.698667 32 126.506667 79.36 167.509333 142.037334 40.96 62.677333 61.824 132.693333 62.506667 210.005333-2.688 108.672-40.192 199.168-112.512 271.488-72.362667 72.32-162.858667 109.824-271.488 112.512-108.672-2.688-199.168-40.192-271.488-112.512-72.32-72.32-109.824-162.858667-112.512-271.488h64c2.005333 90.666667 33.152 166.186667 93.482666 226.517333 60.330667 60.330667 135.850667 91.477333 226.517334 93.482667 90.666667-2.005333 165.973333-33.152 226.005333-93.525333 59.989333-60.330667 91.306667-135.808 93.994667-226.474667-0.64-67.328-19.328-127.488-55.978667-180.48-36.693333-53.034667-86.016-92.202667-148.010667-117.546667-62.677333-23.338667-125.525333-27.818667-188.501333-13.482666-63.018667 14.336-117.504 46.165333-163.498667 95.488z"  fill-opacity=".96" p-id="1808"></path></svg>