<?xml version="1.0" standalone="no"?><!DOCTYPE svg PUBLIC "-//W3C//DTD SVG 1.1//EN" "http://www.w3.org/Graphics/SVG/1.1/DTD/svg11.dtd"><svg class="icon" width="200px" height="200.00px" viewBox="0 0 1024 1024" version="1.1" xmlns="http://www.w3.org/2000/svg"><path d="M960 1024H64a64 64 0 0 1-64-64V128a64 64 0 0 1 64-64h64v128a64 64 0 0 0 64 64h64a64 64 0 0 0 64-64V64h384v128a64 64 0 0 0 64 64h64a64 64 0 0 0 64-64V64h64a64 64 0 0 1 64 64v832a64 64 0 0 1-64 64zM896 320H128v640h768V320zM512 480L576 384h128L576 576v320H448V576L320 384h128zM768 192V0h64v192h-64zM192 192V0h64v192H192z" /></svg>