<?xml version="1.0" standalone="no"?><!DOCTYPE svg PUBLIC "-//W3C//DTD SVG 1.1//EN" "http://www.w3.org/Graphics/SVG/1.1/DTD/svg11.dtd"><svg class="icon" width="200px" height="200.00px" viewBox="0 0 1024 1024" version="1.1" xmlns="http://www.w3.org/2000/svg"><path d="M512 128C352 128 224 256 224 416c0 115.2 70.4 204.8 160 320 32 44.8 70.4 89.6 102.4 147.2C492.8 889.6 499.2 896 512 896l0 0c12.8 0 19.2-6.4 25.6-12.8 32-51.2 70.4-96 102.4-140.8 89.6-121.6 160-211.2 160-326.4C800 256 672 128 512 128zM512 512C460.8 512 416 473.6 416 416S454.4 320 512 320c51.2 0 96 38.4 96 96C608 467.2 569.6 512 512 512z" /></svg>