<?xml version="1.0" standalone="no"?><!DOCTYPE svg PUBLIC "-//W3C//DTD SVG 1.1//EN" "http://www.w3.org/Graphics/SVG/1.1/DTD/svg11.dtd"><svg class="icon" width="200px" height="200.00px" viewBox="0 0 1024 1024" version="1.1" xmlns="http://www.w3.org/2000/svg"><path d="M1006.933333 0H17.066667C6.826667 0 0 6.826667 0 17.066667v204.8c0 10.24 6.826667 17.066667 17.066667 17.066666s17.066667-6.826667 17.066666-17.066666C34.133333 174.08 81.92 170.666667 102.4 170.666667h307.2v750.933333c0 20.48-3.413333 68.266667-51.2 68.266667-10.24 0-17.066667 6.826667-17.066667 17.066666s6.826667 17.066667 17.066667 17.066667h273.066667c10.24 0 17.066667-6.826667 17.066666-17.066667s-6.826667-17.066667-17.066666-17.066666c-47.786667 0-51.2-47.786667-51.2-68.266667V170.666667h341.333333c20.48 0 68.266667 3.413333 68.266667 51.2 0 10.24 6.826667 17.066667 17.066666 17.066666s17.066667-6.826667 17.066667-17.066666v-204.8c0-10.24-6.826667-17.066667-17.066667-17.066667z"  /></svg>